<svg version="1.1" xmlns="http://www.w3.org/2000/svg" xmlns:xlink="http://www.w3.org/1999/xlink" width="590" height="500"><defs/><g><g transform="translate(-62,-182) scale(1,1)"><rect fill="#C0C0C0" stroke="none" x="271" y="287" width="143" height="44" opacity="0.2"/></g><g transform="translate(-62,-182) scale(1,1)"><rect fill="#ffffff" stroke="none" x="264" y="280" width="143" height="44"/></g><g transform="translate(-62,-182) scale(1,1)"><path fill="none" stroke="#000000" d="M 264 280 L 407 280 L 407 324 L 264 324 L 264 280 Z Z" stroke-miterlimit="10"/></g><g transform="translate(-62,-182) scale(1,1)"><path fill="none" stroke="#000000" d="M 264 305 L 407 305" stroke-miterlimit="10"/></g><g transform="translate(-62,-182) scale(1,1)"><path fill="none" stroke="#000000" d="M 264 315 L 407 315" stroke-miterlimit="10"/></g><g transform="translate(-62,-182) scale(1,1)"><g><path fill="none" stroke="none"/><text fill="#000000" stroke="none" font-family="Arial" font-size="13px" font-style="normal" font-weight="bold" text-decoration="none" x="273" y="299.5">Back End Application</text></g></g><g transform="translate(-62,-182) scale(1,1)"><rect fill="#C0C0C0" stroke="none" x="79" y="535" width="143" height="44" opacity="0.2"/></g><g transform="translate(-62,-182) scale(1,1)"><rect fill="#ffffff" stroke="none" x="72" y="528" width="143" height="44"/></g><g transform="translate(-62,-182) scale(1,1)"><path fill="none" stroke="#000000" d="M 72 528 L 215 528 L 215 572 L 72 572 L 72 528 Z Z" stroke-miterlimit="10"/></g><g transform="translate(-62,-182) scale(1,1)"><path fill="none" stroke="#000000" d="M 72 553 L 215 553" stroke-miterlimit="10"/></g><g transform="translate(-62,-182) scale(1,1)"><path fill="none" stroke="#000000" d="M 72 563 L 215 563" stroke-miterlimit="10"/></g><g transform="translate(-62,-182) scale(1,1)"><g><path fill="none" stroke="none"/><text fill="#000000" stroke="none" font-family="Arial" font-size="13px" font-style="normal" font-weight="bold" text-decoration="none" x="82" y="547.5">On Board Application</text></g></g><g transform="translate(-62,-182) scale(1,1)"><rect fill="#C0C0C0" stroke="none" x="271" y="535" width="126" height="44" opacity="0.2"/></g><g transform="translate(-62,-182) scale(1,1)"><rect fill="#ffffff" stroke="none" x="264" y="528" width="126" height="44"/></g><g transform="translate(-62,-182) scale(1,1)"><path fill="none" stroke="#000000" d="M 264 528 L 390 528 L 390 572 L 264 572 L 264 528 Z Z" stroke-miterlimit="10"/></g><g transform="translate(-62,-182) scale(1,1)"><path fill="none" stroke="#000000" d="M 264 553 L 390 553" stroke-miterlimit="10"/></g><g transform="translate(-62,-182) scale(1,1)"><path fill="none" stroke="#000000" d="M 264 563 L 390 563" stroke-miterlimit="10"/></g><g transform="translate(-62,-182) scale(1,1)"><g><path fill="none" stroke="none"/><text fill="#000000" stroke="none" font-family="Arial" font-size="13px" font-style="normal" font-weight="bold" text-decoration="none" x="274" y="547.5">Mobile Application</text></g></g><g transform="translate(-62,-182) scale(1,1)"><rect fill="#C0C0C0" stroke="none" x="463" y="535" width="111" height="44" opacity="0.2"/></g><g transform="translate(-62,-182) scale(1,1)"><rect fill="#ffffff" stroke="none" x="456" y="528" width="111" height="44"/></g><g transform="translate(-62,-182) scale(1,1)"><path fill="none" stroke="#000000" d="M 456 528 L 567 528 L 567 572 L 456 572 L 456 528 Z Z" stroke-miterlimit="10"/></g><g transform="translate(-62,-182) scale(1,1)"><path fill="none" stroke="#000000" d="M 456 553 L 567 553" stroke-miterlimit="10"/></g><g transform="translate(-62,-182) scale(1,1)"><path fill="none" stroke="#000000" d="M 456 563 L 567 563" stroke-miterlimit="10"/></g><g transform="translate(-62,-182) scale(1,1)"><g><path fill="none" stroke="none"/><text fill="#000000" stroke="none" font-family="Arial" font-size="13px" font-style="normal" font-weight="bold" text-decoration="none" x="464.5" y="547.5">Web Application</text></g></g><g transform="translate(-62,-182) scale(1,1)"><rect fill="#C0C0C0" stroke="none" x="551" y="343" width="80" height="44" opacity="0.2"/></g><g transform="translate(-62,-182) scale(1,1)"><rect fill="#ffffff" stroke="none" x="544" y="336" width="80" height="44"/></g><g transform="translate(-62,-182) scale(1,1)"><path fill="none" stroke="#000000" d="M 544 336 L 624 336 L 624 380 L 544 380 L 544 336 Z Z" stroke-miterlimit="10"/></g><g transform="translate(-62,-182) scale(1,1)"><path fill="none" stroke="#000000" d="M 544 361 L 624 361" stroke-miterlimit="10"/></g><g transform="translate(-62,-182) scale(1,1)"><path fill="none" stroke="#000000" d="M 544 371 L 624 371" stroke-miterlimit="10"/></g><g transform="translate(-62,-182) scale(1,1)"><g><path fill="none" stroke="none"/><text fill="#000000" stroke="none" font-family="Arial" font-size="13px" font-style="normal" font-weight="bold" text-decoration="none" x="550.5" y="355.5">Google API</text></g></g><g transform="translate(-62,-182) scale(1,1)"><rect fill="#C0C0C0" stroke="none" x="247" y="415" width="189" height="44" opacity="0.2"/></g><g transform="translate(-62,-182) scale(1,1)"><rect fill="#ffffff" stroke="none" x="240" y="408" width="189" height="44"/></g><g transform="translate(-62,-182) scale(1,1)"><path fill="none" stroke="#000000" d="M 240 408 L 429 408 L 429 452 L 240 452 L 240 408 Z Z" stroke-miterlimit="10"/></g><g transform="translate(-62,-182) scale(1,1)"><path fill="none" stroke="#000000" d="M 240 433 L 429 433" stroke-miterlimit="10"/></g><g transform="translate(-62,-182) scale(1,1)"><path fill="none" stroke="#000000" d="M 240 443 L 429 443" stroke-miterlimit="10"/></g><g transform="translate(-62,-182) scale(1,1)"><g><path fill="none" stroke="none"/><text fill="#000000" stroke="none" font-family="Arial" font-size="13px" font-style="normal" font-weight="bold" text-decoration="none" x="250.5" y="427.5">User Addressed Applications</text></g></g><g transform="translate(-62,-182) scale(1,1)"><path fill="none" stroke="#000000" d="M 136 528 L 136 488 L 328 488 L 328 452" stroke-miterlimit="10"/></g><g transform="translate(-62,-182) scale(1,1)"><path fill="#FFFFFF" stroke="none" d="M 336.419035512032 472.3253497152483 L 328 452 L 319.580964487968 472.3253497152483"/></g><g transform="translate(-62,-182) scale(1,1)"><path fill="none" stroke="#000000" d="M 336.419035512032 472.3253497152483 L 328 452 L 319.580964487968 472.3253497152483 L 336.419035512032 472.3253497152483" stroke-miterlimit="10"/></g><g transform="translate(-62,-182) scale(1,1)"><path fill="none" stroke="#000000" d="M 328 528 L 328 452" stroke-miterlimit="10"/></g><g transform="translate(-62,-182) scale(1,1)"><path fill="#FFFFFF" stroke="none" d="M 336.419035512032 472.3253497152483 L 328 452 L 319.580964487968 472.3253497152483"/></g><g transform="translate(-62,-182) scale(1,1)"><path fill="none" stroke="#000000" d="M 336.419035512032 472.3253497152483 L 328 452 L 319.580964487968 472.3253497152483 L 336.419035512032 472.3253497152483" stroke-miterlimit="10"/></g><g transform="translate(-62,-182) scale(1,1)"><path fill="none" stroke="#000000" d="M 528 528 L 528 488 L 328 488 L 328 452" stroke-miterlimit="10"/></g><g transform="translate(-62,-182) scale(1,1)"><path fill="#FFFFFF" stroke="none" d="M 336.419035512032 472.3253497152483 L 328 452 L 319.580964487968 472.3253497152483"/></g><g transform="translate(-62,-182) scale(1,1)"><path fill="none" stroke="#000000" d="M 336.419035512032 472.3253497152483 L 328 452 L 319.580964487968 472.3253497152483 L 336.419035512032 472.3253497152483" stroke-miterlimit="10"/></g><g transform="translate(-62,-182) scale(1,1)"><path fill="none" stroke="#000000" d="M 429 430 L 584 430 L 584 380" stroke-miterlimit="10"/></g><g transform="translate(-62,-182) scale(1,1)"><path fill="none" stroke="#000000" d="M 588.209517756016 390.16267485762415 L 584 380 L 579.790482243984 390.16267485762415" stroke-miterlimit="10"/></g><g transform="translate(-62,-182) scale(1,1)"><path fill="none" stroke="#000000" d="M 327 324 L 327 360 L 544 360" stroke-miterlimit="10"/></g><g transform="translate(-62,-182) scale(1,1)"><path fill="none" stroke="#000000" d="M 533.8373251423759 364.209517756016 L 544 360 L 533.8373251423758 355.790482243984" stroke-miterlimit="10"/></g><g transform="translate(-62,-182) scale(1,1)"><path fill="#ffffff" stroke="none" d="M 256 192 L 413 192 L 423 202 L 423 231 L 256 231 L 256 192"/></g><g transform="translate(-62,-182) scale(1,1)"><path fill="none" stroke="#000000" d="M 256 192 L 413 192 L 423 202 L 423 231 L 256 231 L 256 192 L 256 192" stroke-miterlimit="10"/></g><g transform="translate(-62,-182) scale(1,1)"><path fill="none" stroke="#000000" d="M 413 192 L 413 202 L 423 202 L 413 192" stroke-miterlimit="10"/></g><g transform="translate(-62,-182) scale(1,1)"><g><path fill="none" stroke="none"/><text fill="#000000" stroke="none" font-family="Arial" font-size="13px" font-style="normal" font-weight="normal" text-decoration="none" x="261" y="210">Support Operators have</text><text fill="#000000" stroke="none" font-family="Arial" font-size="13px" font-style="normal" font-weight="normal" text-decoration="none" x="261" y="223">access to this application</text></g></g><g transform="translate(-62,-182) scale(1,1)"><path fill="none" stroke="#000000" d="M 328 280 L 328 232" stroke-miterlimit="10" stroke-dasharray="3"/></g><g transform="translate(-62,-182) scale(1,1)"><rect fill="#C0C0C0" stroke="none" x="535" y="287" width="114" height="44" opacity="0.2"/></g><g transform="translate(-62,-182) scale(1,1)"><rect fill="#ffffff" stroke="none" x="528" y="280" width="114" height="44"/></g><g transform="translate(-62,-182) scale(1,1)"><path fill="none" stroke="#000000" d="M 528 280 L 642 280 L 642 324 L 528 324 L 528 280 Z Z" stroke-miterlimit="10"/></g><g transform="translate(-62,-182) scale(1,1)"><path fill="none" stroke="#000000" d="M 528 305 L 642 305" stroke-miterlimit="10"/></g><g transform="translate(-62,-182) scale(1,1)"><path fill="none" stroke="#000000" d="M 528 315 L 642 315" stroke-miterlimit="10"/></g><g transform="translate(-62,-182) scale(1,1)"><g><path fill="none" stroke="none"/><text fill="#000000" stroke="none" font-family="Arial" font-size="13px" font-style="normal" font-weight="bold" text-decoration="none" x="533.5" y="299.5">MySQL Database</text></g></g><g transform="translate(-62,-182) scale(1,1)"><path fill="none" stroke="#000000" d="M 407 302 L 528 302" stroke-miterlimit="10"/></g><g transform="translate(-62,-182) scale(1,1)"><path fill="none" stroke="#000000" d="M 517.8373251423759 306.209517756016 L 528 302 L 517.8373251423758 297.790482243984" stroke-miterlimit="10"/></g><g transform="translate(-62,-182) scale(1,1)"><path fill="#ffffff" stroke="none" d="M 480 608 L 547 608 L 557 618 L 557 670 L 480 670 L 480 608"/></g><g transform="translate(-62,-182) scale(1,1)"><path fill="none" stroke="#000000" d="M 480 608 L 547 608 L 557 618 L 557 670 L 480 670 L 480 608 L 480 608" stroke-miterlimit="10"/></g><g transform="translate(-62,-182) scale(1,1)"><path fill="none" stroke="#000000" d="M 547 608 L 547 618 L 557 618 L 547 608" stroke-miterlimit="10"/></g><g transform="translate(-62,-182) scale(1,1)"><g><path fill="none" stroke="none"/><text fill="#000000" stroke="none" font-family="Arial" font-size="13px" font-style="normal" font-weight="normal" text-decoration="none" x="485" y="626">Supported</text><text fill="#000000" stroke="none" font-family="Arial" font-size="13px" font-style="normal" font-weight="normal" text-decoration="none" x="485" y="639">on all</text><text fill="#000000" stroke="none" font-family="Arial" font-size="13px" font-style="normal" font-weight="normal" text-decoration="none" x="485" y="652">common</text><text fill="#000000" stroke="none" font-family="Arial" font-size="13px" font-style="normal" font-weight="normal" text-decoration="none" x="485" y="665">browsers</text></g></g><g transform="translate(-62,-182) scale(1,1)"><path fill="none" stroke="#000000" d="M 516 608 L 516 572" stroke-miterlimit="10" stroke-dasharray="3"/></g><g transform="translate(-62,-182) scale(1,1)"><path fill="#ffffff" stroke="none" d="M 272 608 L 365 608 L 375 618 L 375 671 L 272 671 L 272 608"/></g><g transform="translate(-62,-182) scale(1,1)"><path fill="none" stroke="#000000" d="M 272 608 L 365 608 L 375 618 L 375 671 L 272 671 L 272 608 L 272 608" stroke-miterlimit="10"/></g><g transform="translate(-62,-182) scale(1,1)"><path fill="none" stroke="#000000" d="M 365 608 L 365 618 L 375 618 L 365 608" stroke-miterlimit="10"/></g><g transform="translate(-62,-182) scale(1,1)"><g><path fill="none" stroke="none"/><text fill="#000000" stroke="none" font-family="Arial" font-size="13px" font-style="normal" font-weight="normal" text-decoration="none" x="277" y="626">Supported on</text><text fill="#000000" stroke="none" font-family="Arial" font-size="13px" font-style="normal" font-weight="normal" text-decoration="none" x="277" y="639">iOs, Windows</text><text fill="#000000" stroke="none" font-family="Arial" font-size="13px" font-style="normal" font-weight="normal" text-decoration="none" x="277" y="652">Phone &amp;</text><text fill="#000000" stroke="none" font-family="Arial" font-size="13px" font-style="normal" font-weight="normal" text-decoration="none" x="277" y="665">Android</text></g></g><g transform="translate(-62,-182) scale(1,1)"><path fill="none" stroke="#000000" d="M 326 608 L 326 572" stroke-miterlimit="10" stroke-dasharray="3"/></g></g></svg>